<svg width="24" height="24" viewBox="0 0 24 24" fill="none" xmlns="http://www.w3.org/2000/svg">
  <circle cx="12" cy="12" r="12" fill="#6fbcff"/>
  <path d="M8.39999 14.4C9.50456 14.4 10.4 13.5046 10.4 12.4C10.4 11.2954 9.50456 10.4 8.39999 10.4C7.29542 10.4 6.39999 11.2954 6.39999 12.4C6.39999 13.5046 7.29542 14.4 8.39999 14.4Z" fill="white"/>
  <path d="M15.6 14.4C16.7046 14.4 17.6 13.5046 17.6 12.4C17.6 11.2954 16.7046 10.4 15.6 10.4C14.4954 10.4 13.6 11.2954 13.6 12.4C13.6 13.5046 14.4954 14.4 15.6 14.4Z" fill="white"/>
  <path d="M12 10.4C13.1046 10.4 14 9.50456 14 8.39999C14 7.29542 13.1046 6.39999 12 6.39999C10.8954 6.39999 10 7.29542 10 8.39999C10 9.50456 10.8954 10.4 12 10.4Z" fill="white"/>
  <path d="M12 18.4C13.1046 18.4 14 17.5046 14 16.4C14 15.2954 13.1046 14.4 12 14.4C10.8954 14.4 10 15.2954 10 16.4C10 17.5046 10.8954 18.4 12 18.4Z" fill="white"/>
</svg> 