<svg width="24" height="24" viewBox="0 0 24 24" fill="none" xmlns="http://www.w3.org/2000/svg">
  <circle cx="12" cy="12" r="12" fill="#2775CA"/>
  <path d="M12 18.75C15.7279 18.75 18.75 15.7279 18.75 12C18.75 8.27208 15.7279 5.25 12 5.25C8.27208 5.25 5.25 8.27208 5.25 12C5.25 15.7279 8.27208 18.75 12 18.75Z" fill="#2775CA" stroke="white" strokeWidth="1.5"/>
  <path d="M15 10.2C15 9.07989 14.0513 8.32731 12.7308 8.25V7.125H11.6538V8.25H10.9615V8.26038H9.75V9.4875H10.7885C10.8269 9.4875 10.8654 9.50827 10.8654 9.55981V14.4609C10.8654 14.5021 10.8269 14.5332 10.7885 14.5332H9.75V15.75H10.9615V16.875H12.0481V15.75H12.7308V15.7396H14.9904V14.5125H13.1635C13.125 14.5125 13.0865 14.4917 13.0865 14.4402V12.6159H15V10.2H15Z" fill="white"/>
  <path d="M12.0481 9.48749C12.625 9.48749 13.0865 9.76345 13.0865 10.2V11.3896H11.6538V14.5229H11.6346C11.1442 14.5229 10.7596 14.2159 10.7596 13.7313V10.2C10.7596 9.76345 11.1923 9.48749 12.0481 9.48749Z" fill="white"/>
  <path d="M13.0865 13.6589C13.0865 14.1046 12.6058 14.5021 12.0289 14.5021H11.6538V12.6055H13.0865V13.6589Z" fill="white"/>
</svg> 